<?xml version="1.0" encoding="UTF-8" standalone="no"?>
<svg
   width="720"
   height="240"
   role="img"
   aria-label="𝝺 XAST"
   version="1.1"
   id="svg2"
   xmlns="http://www.w3.org/2000/svg"
   xmlns:svg="http://www.w3.org/2000/svg"
   xmlns:rdf="http://www.w3.org/1999/02/22-rdf-syntax-ns#"
   xmlns:cc="http://creativecommons.org/ns#"
   xmlns:dc="http://purl.org/dc/elements/1.1/">
  <defs
     id="defs2" />
  <title
     id="title1">𝝺 XAST</title>
  <g
     shape-rendering="crispEdges"
     id="g1"
     transform="translate(0,-1.8807189)">
    <rect
       width="720"
       height="240"
       fill="#44cc11"
       id="rect1"
       x="0"
       y="1.8807189"
       style="stroke-width:9.1477" />
  </g>
  <g
     fill="#ffffff"
     text-anchor="middle"
     font-family="Verdana, Geneva, 'DejaVu Sans', sans-serif"
     text-rendering="geometricPrecision"
     font-size="100px"
     id="g2"
     transform="matrix(9.7627119,0,0,9.9015776,0,-18.622084)">
    <path
       d="m 133.65332,125.19531 -3.02734,-8.20312 q -1.36719,-3.75977 -3.22266,-5.12696 -1.80664,-1.36718 -6.39648,-1.36718 h -5.46875 V 99.023437 h 10.10742 q 8.88672,0 13.67187,3.759763 4.83399,3.75977 8.1543,12.64649 L 169.83496,175 H 152.35449 L 141.46582,146.28906 129.99121,175 H 112.51074 Z M 299.30371,137.79297 324.59668,175 H 305.0166 L 287.97559,150.09766 271.08105,175 h -19.67773 l 25.29297,-37.20703 -24.31641,-35.69336 h 19.62891 l 15.9668,23.48633 15.91796,-23.48633 h 19.72657 z m 101.64844,23.92578 H 371.55762 L 366.91895,175 h -18.89649 l 27.00195,-72.90039 h 22.41211 L 424.43848,175 h -18.89649 z m -24.70703,-13.52539 h 19.9707 l -9.96094,-29.00391 z m 129.52929,-43.79883 v 15.42969 q -6.00586,-2.68555 -11.71875,-4.05274 -5.71289,-1.36718 -10.79101,-1.36718 -6.73828,0 -9.96094,1.85547 -3.22266,1.85546 -3.22266,5.76171 0,2.92969 2.14844,4.58985 2.19727,1.61133 7.91016,2.7832 l 8.00781,1.61133 q 12.1582,2.44141 17.28516,7.42187 5.12695,4.98047 5.12695,14.16016 0,12.06055 -7.17773,17.96875 -7.12891,5.85938 -21.82618,5.85938 -6.93359,0 -13.91601,-1.31836 -6.98242,-1.31836 -13.96485,-3.90625 v -15.86914 q 6.98243,3.71093 13.47657,5.61523 6.54297,1.85547 12.59765,1.85547 6.15235,0 9.42383,-2.05078 3.27149,-2.05078 3.27149,-5.85938 0,-3.41797 -2.2461,-5.27344 -2.19726,-1.85546 -8.83789,-3.32031 l -7.27539,-1.61133 q -10.9375,-2.34375 -16.01562,-7.4707 -5.0293,-5.12695 -5.0293,-13.81836 0,-10.88867 7.03125,-16.74804 7.03125,-5.85938 20.21484,-5.85938 6.00586,0 12.35352,0.92773 6.34765,0.87891 13.13476,2.68555 z m 33.53321,-2.29492 h 67.1875 v 14.20898 H 582.3252 V 175 h -18.79883 v -58.69141 h -24.21875 z"
       id="text1"
       style="font-weight:bold"
       transform="scale(0.1)"
       aria-label="𝝺 XAST" />
  </g>
  <metadata
     id="metadata2">
    <rdf:RDF>
      <cc:Work
         rdf:about="">
        <dc:title>𝝺 XAST</dc:title>
      </cc:Work>
    </rdf:RDF>
  </metadata>
</svg>
