<?xml version="1.0" encoding="UTF-8" standalone="no"?>
<!-- Created with Inkscape (http://www.inkscape.org/) -->

<svg
   width="206.45988mm"
   height="91.17942mm"
   viewBox="0 0 206.45988 91.17942"
   version="1.1"
   id="svg5"
   inkscape:version="1.1.2 (0a00cf5339, 2022-02-04)"
   sodipodi:docname="Xast.svg"
   xmlns:inkscape="http://www.inkscape.org/namespaces/inkscape"
   xmlns:sodipodi="http://sodipodi.sourceforge.net/DTD/sodipodi-0.dtd"
   xmlns="http://www.w3.org/2000/svg"
   xmlns:svg="http://www.w3.org/2000/svg">
  <sodipodi:namedview
     id="namedview7"
     pagecolor="#ffffff"
     bordercolor="#666666"
     borderopacity="1.0"
     inkscape:pageshadow="2"
     inkscape:pageopacity="0.0"
     inkscape:pagecheckerboard="0"
     inkscape:document-units="mm"
     showgrid="false"
     inkscape:zoom="0.11600044"
     inkscape:cx="-2254.3017"
     inkscape:cy="2387.9219"
     inkscape:window-width="1920"
     inkscape:window-height="1011"
     inkscape:window-x="0"
     inkscape:window-y="32"
     inkscape:window-maximized="1"
     inkscape:current-layer="layer1" />
  <defs
     id="defs2">
    <rect
       x="424.10812"
       y="359.54413"
       width="65.879211"
       height="51.076496"
       id="rect35647" />
  </defs>
  <g
     inkscape:label="Шар 1"
     inkscape:groupmode="layer"
     id="layer1"
     transform="translate(-11.372877,-52.595143)">
    <path
       style="fill:#00a300;fill-opacity:1;stroke:#000000;stroke-width:5.29167;stroke-linecap:round;stroke-linejoin:round;stroke-miterlimit:4;stroke-dasharray:none;stroke-opacity:1;paint-order:markers fill stroke"
       d="m 14.018712,76.690113 v -21.44913 l 21.449117,-5e-6 21.49475,14.52868 21.49476,-14.52868 h 21.44912 v 21.449114 l -14.52869,21.494756 14.52869,21.494762 1e-5,21.44912 h -21.44912 l -21.49475,-14.52869 -21.49476,14.52869 H 14.018714 l -2e-6,-21.44911 14.528691,-21.494762 z"
       id="path27223" />
    <rect
       style="fill:#00a300;fill-opacity:1;stroke:none;stroke-width:1.23793;stroke-linecap:round;stroke-linejoin:bevel"
       id="rect846-3"
       width="40.185158"
       height="40.185158"
       x="89.613228"
       y="9.0559711"
       transform="rotate(45)" />
    <path
       style="fill:#007c00;fill-opacity:1;stroke:none;stroke-width:0.264583px;stroke-linecap:butt;stroke-linejoin:miter;stroke-opacity:1"
       d="M 99.906459,141.12873 56.962579,126.60005 85.377769,98.184848 Z"
       id="path1186" />
    <path
       style="fill:#00cf00;fill-opacity:1;stroke:none;stroke-width:0.264583px;stroke-linecap:butt;stroke-linejoin:miter;stroke-opacity:1"
       d="m 14.018705,55.24098 42.943874,14.528678 -28.415183,28.4152 z"
       id="path1186-6" />
    <path
       style="fill:#00bd00;fill-opacity:1;stroke:none;stroke-width:0.264583px;stroke-linecap:butt;stroke-linejoin:miter;stroke-opacity:1"
       d="M 14.01871,141.12873 28.54739,98.184848 56.962589,126.60004 Z"
       id="path1186-7" />
    <path
       style="fill:#008e00;fill-opacity:1;stroke:none;stroke-width:0.264583px;stroke-linecap:butt;stroke-linejoin:miter;stroke-opacity:1"
       d="m 99.906459,55.240978 -14.52868,42.94387 -28.4152,-28.415176 z"
       id="path1186-6-5" />
    <path
       style="fill:#4fff4f;fill-opacity:1;stroke:none;stroke-width:0.264583px;stroke-linecap:butt;stroke-linejoin:miter;stroke-opacity:1"
       d="m 14.018704,55.240978 h 21.449125 l 21.49475,14.528694 z"
       id="path2159" />
    <path
       style="fill:#00cf00;fill-opacity:1;stroke:none;stroke-width:0.264583px;stroke-linecap:butt;stroke-linejoin:miter;stroke-opacity:1"
       d="M 99.906459,55.240978 H 78.457339 L 56.962589,69.769672 Z"
       id="path2159-3" />
    <path
       style="fill:#007200;fill-opacity:1;stroke:none;stroke-width:0.264583px;stroke-linecap:butt;stroke-linejoin:miter;stroke-opacity:1"
       d="M 14.018716,141.12873 H 35.467841 L 56.962589,126.60004 Z"
       id="path2159-5" />
    <path
       style="fill:#006000;fill-opacity:1;stroke:none;stroke-width:0.264583px;stroke-linecap:butt;stroke-linejoin:miter;stroke-opacity:1"
       d="M 99.906469,141.12873 H 78.457349 L 56.962599,126.60004 Z"
       id="path2159-3-6" />
    <path
       style="fill:#007c00;fill-opacity:1;stroke:none;stroke-width:0.264583px;stroke-linecap:butt;stroke-linejoin:miter;stroke-opacity:1"
       d="M 99.906459,55.240972 V 76.690094 L 85.377769,98.184848 Z"
       id="path2159-2" />
    <path
       style="fill:#007000;fill-opacity:1;stroke:none;stroke-width:0.264583px;stroke-linecap:butt;stroke-linejoin:miter;stroke-opacity:1"
       d="M 99.906459,141.12873 V 119.67961 L 85.377769,98.184858 Z"
       id="path2159-3-9" />
    <path
       style="fill:#00f400;fill-opacity:1;stroke:none;stroke-width:0.264583px;stroke-linecap:butt;stroke-linejoin:miter;stroke-opacity:1"
       d="m 14.018712,55.240984 v 21.44913 l 14.528691,21.494744 z"
       id="path2159-5-1" />
    <path
       style="fill:#00e400;fill-opacity:1;stroke:none;stroke-width:0.264583px;stroke-linecap:butt;stroke-linejoin:miter;stroke-opacity:1"
       d="M 14.018712,141.12874 V 119.67962 L 28.547402,98.184868 Z"
       id="path2159-3-6-2" />
    <g
       aria-label="AST"
       transform="matrix(1.9046675,0,0,1.9046675,-702.32595,-632.52917)"
       id="text35645"
       style="font-size:40px;line-height:1.25;white-space:pre;shape-inside:url(#rect35647)">
      <path
         d="m 438.46742,396.85261 -1.16,-5.72 h -6.6 l -1.12,5.72 h -5.12 q 1.76,-7.32 3.56,-13.32 1.8,-6.04 3.48,-11.44 h 5.36 q 1.76,5.44 3.48,11.56 1.76,6.08 3.4,13.2 z m -4.4,-19.96 q -0.4,1.4 -0.76,2.68 -0.32,1.24 -0.64,2.48 -0.28,1.2 -0.56,2.44 -0.24,1.24 -0.48,2.56 h 4.84 q -0.24,-1.32 -0.48,-2.56 -0.24,-1.24 -0.56,-2.44 -0.28,-1.24 -0.64,-2.48 -0.32,-1.28 -0.72,-2.68 z"
         style="font-weight:bold;font-family:'Ubuntu Mono';-inkscape-font-specification:'Ubuntu Mono Bold'"
         id="path4314" />
      <path
         d="m 453.38735,393.25261 q 1.24,0 2.04,-0.24 0.84,-0.28 1.32,-0.72 0.48,-0.48 0.64,-1.04 0.2,-0.6 0.2,-1.2 0,-0.76 -0.44,-1.36 -0.44,-0.6 -1.12,-1.04 -0.68,-0.48 -1.52,-0.84 -0.84,-0.4 -1.68,-0.72 -1.12,-0.4 -2.32,-0.92 -1.2,-0.52 -2.2,-1.32 -0.96,-0.8 -1.6,-1.96 -0.64,-1.2 -0.64,-2.96 0,-3.48 2.24,-5.44 2.28,-1.96 6.24,-1.96 2.28,0 3.96,0.52 1.72,0.52 2.88,1.16 l -1.44,3.8 q -1,-0.56 -2.24,-0.96 -1.2,-0.4 -2.8,-0.4 -3.92,0 -3.92,2.84 0,0.72 0.4,1.28 0.4,0.52 1,0.96 0.64,0.4 1.4,0.72 0.8,0.32 1.56,0.6 1.16,0.44 2.4,1 1.28,0.52 2.32,1.44 1.08,0.88 1.76,2.24 0.68,1.32 0.68,3.36 0,3.48 -2.28,5.4 -2.24,1.88 -6.84,1.88 -3.08,0 -4.92,-0.64 -1.84,-0.68 -2.76,-1.24 l 1.44,-4 q 1.08,0.64 2.56,1.2 1.52,0.56 3.68,0.56 z"
         style="font-weight:bold;font-family:'Ubuntu Mono';-inkscape-font-specification:'Ubuntu Mono Bold'"
         id="path4316" />
      <path
         d="m 483.10727,372.09261 v 4.08 h -6.52 v 20.68 h -4.96 v -20.68 h -6.52 v -4.08 z"
         style="font-weight:bold;font-family:'Ubuntu Mono';-inkscape-font-specification:'Ubuntu Mono Bold'"
         id="path4318" />
    </g>
  </g>
</svg>
